<?xml version="1.0" encoding="utf-8" ?><svg xmlns="http://www.w3.org/2000/svg" xmlns:xlink="http://www.w3.org/1999/xlink" width="533" height="595" viewBox="0 0 533 595"><path fill="#65C507" d="M260.756 3.01897C267.084 2.32392 283.724 4.08052 289.81 6.37404C303.952 11.6998 316.269 20.1806 329.493 27.3007C348.655 37.6174 366.9 49.5577 385.691 60.4829L456.882 102.387L474.397 112.732C483.313 117.882 490.803 121.702 498.608 128.815C512.646 141.454 522.508 159.573 525.115 178.341C526.854 190.864 526.287 205.404 526.172 218.138L526.145 249.228L526.182 344.84L526.142 389.314C526.131 399.992 526.837 411.159 524.725 421.67C522.242 434.026 513.993 448.842 505.376 458.032C494.333 469.809 475.673 479.78 461.578 487.846L439.311 500.812L377.634 536.691L325.075 567.795C309.505 576.94 290.233 590.459 271.801 591.043C268.77 591.246 265.438 591.014 262.64 591.118C252.687 591.49 247.312 589.42 238.234 585.718C226.268 580.949 215.756 573.165 204.52 567.037C189.614 558.909 175.216 550.032 160.649 541.314L124.71 520.163C107.817 510.241 90.8338 500.506 73.9775 490.381C56.2616 479.74 34.5381 470.28 21.2117 454.121C11.8255 442.739 5.73889 427.776 4.34077 413.161C3.07485 399.928 4.03831 386.36 4.25059 373.074C4.39558 360.672 4.30715 348.276 4.24887 335.899L3.71373 238.872C3.70568 227.677 3.69971 216.975 4.14859 205.785C4.57233 195.222 4.17488 184.965 6.14321 174.429C6.59871 171.25 7.82561 168.262 8.65419 165.204C16.3848 136.673 38.1299 123.374 62.3037 109.361L78.7237 99.7122C93.3259 91.337 107.818 82.771 122.196 74.0163C148.655 58.0456 175.271 42.3357 202.039 26.8888C212.206 21.0879 222.18 14.6249 232.751 9.48637C242.565 4.71548 250.121 4.20598 260.756 3.01897ZM415.216 470.33C427.24 462.757 439.762 456.008 451.789 448.39C466.267 439.219 482.999 430.936 487.18 412.609C488.979 404.724 488.691 396.104 488.691 388.055L488.674 365.104L488.653 287.614L488.709 225.98C488.709 207.795 491.089 185.861 481.013 170.17C473.139 157.348 460.921 151.31 448.483 144.043C434.613 135.939 420.618 127.292 405.276 121.981C391.954 117.369 377.558 116.983 363.631 117.226C359.89 117.265 355.849 117.034 352.155 117.546C346.226 118.367 337.343 120.105 331.65 121.668C326.762 123.01 306.398 130.171 303.294 133.185C302.998 133.472 302.843 133.756 302.706 134.14C303.118 135.061 305.589 136.9 306.536 137.377C328.787 148.591 349.908 162.181 371.496 174.633L393.854 187.465C398.844 190.351 404.36 192.912 408.599 196.871C420.989 208.443 420.599 222.038 420.603 237.44L420.604 260.697L420.594 332.501L420.604 387.453C420.604 393.874 420.673 400.336 420.597 406.755C420.386 424.575 417.931 442.972 412.764 460.051C411.789 463.273 408.19 470.436 409.173 473.269C410.658 473.805 413.846 471.231 415.216 470.33ZM366.851 475.696C374.755 460.652 380.657 440.063 381.268 423.145C381.432 418.63 382.118 414.94 381.3 410.356L380.89 410.492C377.398 411.671 374.308 415.291 370.089 417.404C360.335 422.291 351.183 428.577 341.902 434.268L308.865 454.15C298.773 460.19 287.345 467.507 276.181 471.23C272.734 472.38 257.958 472.604 254.411 471.534C247.908 469.572 238.517 463.898 232.588 460.552C221.543 454.319 210.692 447.637 199.847 441.119L143.774 407.933C138.303 404.638 132.139 401.401 126.545 398.183L95.2393 379.853C78.0922 369.826 62.9024 361.314 49.9282 345.931C48.0201 343.668 44.6435 338.507 42.1752 337.365C40.5666 340.77 42.1539 362.673 42.0341 367.976C41.9064 377.599 42.166 387.773 41.9261 397.332C41.5988 410.377 45.1288 425.039 56.1454 433.233C67.2545 441.495 80.8295 448.496 92.8501 455.463L154.031 491.234L183.682 508.821C192.946 514.335 201.848 519.956 211.078 525.526C222.253 532.271 234.115 539.089 245.631 545.262C256.161 550.906 268.678 552.665 279.946 548.107C300.009 539.67 318.786 525.929 336.118 512.854C348.79 503.295 360.105 490.214 366.851 475.696ZM110.035 331.419C109.662 322.056 109.861 311.792 109.864 302.366L109.932 253.253L109.849 229.602C109.871 225.74 109.744 220.668 110.424 216.893C113.876 197.729 131.129 191.346 145.949 182.671L170.789 167.842C175.51 165.065 180.381 162.518 185.085 159.688L255.101 117.15C280.406 101.945 304.375 86.5676 334.26 82.174C336.612 81.8281 341.22 81.9504 342.319 79.8062C341.593 78.4026 332.461 74.2898 330.086 73.0527C321.623 68.5849 313.252 63.944 304.979 59.1328C295.01 53.2109 278.743 41.8236 266.797 41.9822C259.439 42.023 254.916 42.8075 248.062 45.972C236.765 51.1878 226.771 58.398 216.154 64.6476C207.613 69.6756 198.881 74.8193 190.323 79.8424L139.361 109.984C120.497 120.973 101.451 131.417 83.0731 143.214C74.2481 148.548 64.0817 153.377 56.6272 160.636C46.1615 171.076 42.4003 185.063 41.7959 199.417C41.6675 203.422 40.7732 208.158 41.0394 212.111C41.8671 224.405 41.9602 236.908 44.0246 249.058C44.9253 254.359 46.5589 259.521 47.8037 264.688C55.0347 294.702 75.7011 321.203 102.394 336.482C104.037 337.422 107.499 339.885 109.41 339.285C110.478 337.722 110.085 333.452 110.035 331.419Z"/><path fill="#56A306" d="M147.288 225.555C148.326 226.047 152.789 229.132 153.998 229.914C158.422 232.739 162.88 235.508 167.373 238.221L225.368 272.849C233.028 277.568 240.718 282.236 248.439 286.852C254.058 290.216 259.551 293.651 265.53 296.332C279.083 289.248 291.727 280.748 304.964 273.276C331.194 258.47 356.389 241.561 382.785 227.16L382.82 322.671C382.821 326.562 383.315 364.861 382.398 366.24C374.922 371.261 365.389 376.316 357.572 380.886L314.106 406.541C305.648 411.52 297.12 417.512 288.529 422.458C285.092 424.436 281.614 426.898 278.067 428.676C274.569 430.447 270.767 431.54 266.862 431.897C256.217 432.793 248.975 426.555 240.586 421.163C234.944 417.615 229.258 414.137 223.53 410.73L192.563 392.273C182.906 386.613 172.835 381.22 163.477 375.051C158.821 371.981 150.879 367.933 146.918 364.553C146.741 360.674 147.037 354.647 147.063 350.6C147.143 340.344 147.16 330.087 147.115 319.831L147.066 275.019C147.005 258.771 146.833 241.762 147.288 225.555Z"/></svg>